<svg width="75" height="45" viewBox="0 0 75 45" fill="none" xmlns="http://www.w3.org/2000/svg">
<g clip-path="url(#clip0_43_1358)">
<path d="M71.2 0.5H2.96667C1.32822 0.5 0 1.82822 0 3.46667V42.0333C0 43.6718 1.32822 45 2.96667 45H71.2C72.8384 45 74.1667 43.6718 74.1667 42.0333V3.46667C74.1667 1.82822 72.8384 0.5 71.2 0.5Z" fill="url(#paint0_linear_43_1358)"/>
<path d="M32.1141 13.4791H35.5258V32.7625H32.1141V13.4791ZM38.4925 20.0058H41.9041V32.7625H38.4925V20.0058ZM57.3308 32.7625L52.1392 26.0133L56.8858 20.0058H52.8066L48.2083 25.865V13.4791H44.7225V32.7625H48.2083V26.1616L52.8066 32.7625H57.3308ZM23.3625 19.8575C22.25 19.8575 21.2116 20.1541 20.2475 20.5991V13.4791H16.8358V26.3841C16.8358 30.0183 19.7283 32.9108 23.3625 32.9108C26.9966 32.9108 29.8891 30.0183 29.8891 26.3841C29.8891 22.75 26.9225 19.8575 23.3625 19.8575ZM23.3625 29.4991C21.6566 29.4991 20.2475 28.09 20.2475 26.3841C20.2475 24.6783 21.6566 23.2691 23.3625 23.2691C25.0683 23.2691 26.4775 24.6783 26.4775 26.3841C26.4033 28.09 25.0683 29.4991 23.3625 29.4991Z" fill="white"/>
<path d="M26.7 18.6709C28.3794 18.6709 29.7408 17.3095 29.7408 15.6301C29.7408 13.9507 28.3794 12.5892 26.7 12.5892C25.0206 12.5892 23.6592 13.9507 23.6592 15.6301C23.6592 17.3095 25.0206 18.6709 26.7 18.6709Z" fill="#E83E49"/>
</g>
<defs>
<linearGradient id="paint0_linear_43_1358" x1="37.0833" y1="45" x2="37.0833" y2="0.5" gradientUnits="userSpaceOnUse">
<stop stop-color="#262626"/>
<stop offset="1"/>
</linearGradient>
<clipPath id="clip0_43_1358">
<rect width="74.1667" height="44.5" fill="white" transform="translate(0 0.5)"/>
</clipPath>
</defs>
</svg>
