<svg width="110" height="30" viewBox="0 0 110 30" fill="none" xmlns="http://www.w3.org/2000/svg">
<g clip-path="url(#clip0_43_1360)">
<path d="M19.3649 1.5226C17.9999 0.584221 16.2187 0.113892 14.0213 0.113892H5.51406C4.84042 0.113892 4.46825 0.450792 4.39755 1.12395L0.941756 22.817C0.905839 23.03 0.959145 23.2249 1.10119 23.402C1.24242 23.5795 1.42005 23.6677 1.63279 23.6677H5.67365C6.3824 23.6677 6.77195 23.3316 6.84346 22.6577L7.80037 16.8093C7.83531 16.5259 7.95997 16.2954 8.1727 16.1179C8.38528 15.9408 8.65116 15.8249 8.97018 15.7719C9.28921 15.7193 9.59003 15.6926 9.87411 15.6926C10.1574 15.6926 10.494 15.7107 10.8845 15.7459C11.274 15.7812 11.5224 15.7986 11.6288 15.7986C14.677 15.7986 17.0696 14.9397 18.8068 13.2199C20.5431 11.5011 21.4123 9.11759 21.4123 6.06842C21.4123 3.97712 20.7292 2.46196 19.3649 1.52212V1.5226ZM14.9787 8.03636C14.8009 9.27719 14.3406 10.0921 13.5963 10.4821C12.8518 10.8726 11.7884 11.067 10.4062 11.067L8.65148 11.12L9.55558 5.43069C9.62611 5.04114 9.8564 4.84611 10.2466 4.84611H11.2571C12.6743 4.84611 13.7029 5.0504 14.3409 5.45735C14.9787 5.86527 15.1914 6.72515 14.9787 8.03636Z" fill="#003087"/>
<path d="M109.142 0.113525H105.208C104.817 0.113525 104.587 0.30855 104.516 0.698758L101.06 22.8176L101.007 22.9239C101.007 23.102 101.078 23.2695 101.22 23.4291C101.361 23.5884 101.539 23.6682 101.751 23.6682H105.261C105.934 23.6682 106.306 23.3321 106.378 22.6581L109.834 0.911493V0.858675C109.834 0.36218 109.602 0.114178 109.142 0.114178V0.113525Z" fill="#009CDE"/>
<path d="M61.6084 8.675C61.6084 8.49818 61.5372 8.32949 61.3963 8.17038C61.2541 8.01095 61.0945 7.93066 60.9177 7.93066H56.8236C56.4329 7.93066 56.1139 8.10878 55.8662 8.46226L50.2304 16.7571L47.891 8.78161C47.7128 8.21491 47.3234 7.93066 46.7213 7.93066H42.7329C42.5553 7.93066 42.3959 8.01062 42.255 8.17038C42.1128 8.32949 42.0422 8.4985 42.0422 8.675C42.0422 8.74635 42.3879 9.79167 43.0789 11.8121C43.77 13.8332 44.5143 16.0132 45.312 18.3528C46.1096 20.692 46.5258 21.9333 46.5614 22.0739C43.6546 26.0445 42.2018 28.1712 42.2018 28.4543C42.2018 28.9156 42.4318 29.1457 42.893 29.1457H46.987C47.3768 29.1457 47.6956 28.9689 47.9443 28.6143L61.5027 9.04701C61.5731 8.9768 61.6084 8.85328 61.6084 8.67484V8.675Z" fill="#003087"/>
<path d="M99.7321 7.93064H95.6911C95.1943 7.93064 94.8941 8.51571 94.7877 9.68568C93.8649 8.26819 92.1823 7.55847 89.7359 7.55847C87.1839 7.55847 85.0125 8.51571 83.2228 10.4299C81.4325 12.344 80.5378 14.5955 80.5378 17.1828C80.5378 19.2746 81.1492 20.9404 82.3719 22.1806C83.5948 23.4221 85.234 24.0416 87.2907 24.0416C88.3184 24.0416 89.3641 23.8286 90.4274 23.4036C91.4908 22.9783 92.3231 22.4114 92.9268 21.7022C92.9268 21.7377 92.8906 21.8967 92.8205 22.1801C92.7489 22.4642 92.7139 22.6776 92.7139 22.8182C92.7139 23.386 92.9437 23.6688 93.4053 23.6688H97.0743C97.747 23.6688 98.1373 23.3327 98.2433 22.6587L100.424 8.78126C100.459 8.56836 100.406 8.37383 100.264 8.19636C100.122 8.01954 99.9447 7.93064 99.7321 7.93064ZM92.7935 18.4056C91.8896 19.2918 90.7994 19.7347 89.5235 19.7347C88.4951 19.7347 87.6628 19.4516 87.0245 18.8841C86.3861 18.3182 86.0671 17.5383 86.0671 16.5446C86.0671 15.2341 86.5103 14.1254 87.3968 13.2216C88.2817 12.3177 89.3816 11.8659 90.6932 11.8659C91.6848 11.8659 92.5091 12.1582 93.1656 12.7428C93.8207 13.3279 94.1496 14.1343 94.1496 15.1626C94.1493 16.4385 93.6973 17.5199 92.7935 18.4056Z" fill="#009CDE"/>
<path d="M39.3304 7.93064H35.2894C34.7924 7.93064 34.4917 8.51571 34.3853 9.68568C33.4282 8.26819 31.7443 7.55847 29.334 7.55847C26.7818 7.55847 24.6104 8.51571 22.8206 10.4299C21.0303 12.344 20.1356 14.5955 20.1356 17.1828C20.1356 19.2746 20.7472 20.9404 21.9701 22.1806C23.1931 23.4221 24.8321 24.0416 26.8883 24.0416C27.8803 24.0416 28.9089 23.8286 29.9721 23.4036C31.0354 22.9783 31.8862 22.4114 32.5243 21.7022C32.3821 22.1271 32.3115 22.4995 32.3115 22.8182C32.3115 23.386 32.5418 23.6688 33.0027 23.6688H36.6714C37.3444 23.6688 37.7348 23.3327 37.8412 22.6587L40.0211 8.78126C40.056 8.56836 40.0031 8.37383 39.8617 8.19636C39.7198 8.01954 39.5428 7.93064 39.3304 7.93064ZM32.3916 18.432C31.4876 19.3014 30.3793 19.7347 29.0686 19.7347C28.04 19.7347 27.2159 19.4516 26.5961 18.8841C25.9754 18.3182 25.6655 17.5383 25.6655 16.5446C25.6655 15.2341 26.1083 14.1254 26.9949 13.2216C27.8805 12.3177 28.9794 11.8657 30.2914 11.8657C31.2834 11.8657 32.1076 12.1582 32.764 12.7428C33.4193 13.3279 33.7475 14.1343 33.7475 15.1626C33.7474 16.4741 33.2956 17.5644 32.3916 18.432Z" fill="#003087"/>
<path d="M79.7667 1.5226C78.4019 0.584221 76.6211 0.113892 74.4232 0.113892H65.969C65.2599 0.113892 64.8697 0.450792 64.7994 1.12395L61.3432 22.817C61.3073 23.03 61.3606 23.2249 61.5028 23.402C61.6434 23.5795 61.8215 23.6677 62.0343 23.6677H66.394C66.8193 23.6677 67.1027 23.4376 67.2449 22.9767L68.202 16.8093C68.2373 16.5259 68.3613 16.2954 68.5744 16.1179C68.7871 15.9408 69.0526 15.8249 69.372 15.7719C69.6907 15.7193 69.9915 15.6926 70.2758 15.6926C70.5592 15.6926 70.8956 15.7107 71.2858 15.7459C71.6755 15.7812 71.9245 15.7986 72.0302 15.7986C75.079 15.7986 77.4711 14.9397 79.2083 13.2199C80.9453 11.5011 81.8136 9.11759 81.8136 6.06842C81.8138 3.97712 81.131 2.4618 79.7667 1.52212V1.5226ZM74.317 10.2692C73.537 10.8008 72.3671 11.0665 70.8078 11.0665L69.1061 11.1198L70.01 5.43037C70.0803 5.04097 70.3107 4.84562 70.7011 4.84562H71.6578C72.4377 4.84562 73.0579 4.88122 73.5195 4.95191C73.9794 5.0231 74.4232 5.24428 74.8486 5.61629C75.2742 5.98862 75.4866 6.52948 75.4866 7.23806C75.4866 8.72739 75.0962 9.73712 74.317 10.2692Z" fill="#009CDE"/>
</g>
<defs>
<clipPath id="clip0_43_1360">
<rect width="110" height="30" fill="white"/>
</clipPath>
</defs>
</svg>
