<svg width="79" height="40" viewBox="0 0 79 40" fill="none" xmlns="http://www.w3.org/2000/svg">
<g clip-path="url(#clip0_43_1359)">
<path fill-rule="evenodd" clip-rule="evenodd" d="M78.2919 8.65374L74.8123 8.65232C74.7221 8.65232 74.6327 8.63453 74.5494 8.59997C74.466 8.56541 74.3902 8.51476 74.3265 8.4509C74.2627 8.38705 74.2121 8.31126 74.1776 8.22785C74.1431 8.14444 74.1255 8.05506 74.1255 7.9648L74.127 4.44254C74.127 4.0632 74.4344 3.75503 74.8145 3.75503L78.2933 3.75645C78.6727 3.75645 78.9808 4.06462 78.9808 4.44396L78.9794 7.96694C78.9794 8.05719 78.9616 8.14656 78.9271 8.22993C78.8925 8.3133 78.8419 8.38905 78.778 8.45283C78.7142 8.51662 78.6384 8.56719 78.555 8.60166C78.4715 8.63614 78.3822 8.65383 78.2919 8.65374ZM73.6551 3.75574L71.2922 3.75503C71.1685 3.75484 71.05 3.70557 70.9625 3.61803C70.8751 3.53049 70.826 3.41185 70.826 3.28814V0.89537C70.8268 0.637731 71.036 0.429199 71.2936 0.429199L73.6565 0.429911C73.9142 0.429911 74.1234 0.639154 74.1234 0.896794L74.1227 3.28886C74.1227 3.41268 74.0735 3.53144 73.986 3.61899C73.8984 3.70655 73.7796 3.75574 73.6558 3.75574" fill="#B5D000"/>
<path fill-rule="evenodd" clip-rule="evenodd" d="M4.23546 10.2238C1.53096 10.2238 0.325317 11.4294 0.325317 14.1339V31.5025C0.325317 32.5473 0.660533 32.8825 1.70533 32.8825H2.04695C3.09174 32.8825 3.42767 32.5473 3.42767 31.5025V24.7462H9.29573C14.5055 24.7462 16.9324 22.4382 16.9324 17.4854C16.9324 12.5318 14.5055 10.2245 9.29573 10.2245H4.23546V10.2238ZM3.42767 14.5438C3.42767 13.5311 3.80416 13.1546 4.81693 13.1546H9.29573C12.1682 13.1546 13.8308 13.8634 13.8308 17.4846C13.8308 20.3144 13.1084 21.8481 9.29573 21.8481H3.42767V14.5438ZM67.2476 10.228C65.1324 10.228 64.3459 10.5768 64.3459 12.5034V17.0128L64.3445 17.0412V18.0291C64.3438 18.0633 64.3417 18.096 64.3417 18.1309V24.4309C64.3417 25.1996 64.1929 25.8131 63.8869 26.2885C63.3104 27.1782 62.1688 27.5817 60.3418 27.5838C58.5149 27.5817 57.374 27.1782 56.7968 26.2899C56.4908 25.8131 56.3413 25.201 56.3413 24.4309V18.1309C56.3413 18.0953 56.3392 18.0633 56.3392 18.0291V17.0412L56.3377 17.0128V12.5034C56.3377 10.5768 55.5513 10.228 53.4354 10.228H52.7699C50.654 10.228 49.8676 10.5768 49.8676 12.5034V24.4309C49.8676 26.349 50.3003 27.9738 51.1366 29.2834C52.7507 31.8206 55.8787 33.1722 60.3247 33.1722H60.3582C64.805 33.1722 67.9322 31.8206 69.5471 29.2834C70.3834 27.9738 70.8161 26.349 70.8161 24.4309V12.5034C70.8161 10.5768 70.0289 10.228 67.9137 10.228H67.2476ZM19.7116 15.5516C18.8668 15.7345 18.5138 15.9666 18.5138 16.9259V17.1992C18.5138 17.5757 18.57 17.8362 18.6896 18.0198C18.8284 18.2334 19.0526 18.3415 19.3551 18.3415C19.5031 18.3415 19.6746 18.3159 19.8789 18.2654C20.3607 18.1444 21.9016 17.8953 23.5869 17.8953C26.6138 17.8953 27.8479 18.7344 27.8479 20.7898V22.6239H24.031C19.1245 22.6239 16.8392 24.2786 16.8392 27.8336C16.8392 31.2805 19.1992 33.1786 23.4844 33.1786C28.5767 33.1786 30.8478 31.4463 30.8478 27.5596V20.7891C30.8478 17.0306 28.428 15.2036 23.4503 15.2036C21.4447 15.2036 20.1878 15.4548 19.7116 15.5502V15.5516ZM19.8383 27.8329C19.8383 25.8494 21.0233 25.0758 24.0659 25.0758H27.8479V27.4571C27.8479 29.398 27.1291 30.5218 23.4495 30.5218C21.0198 30.5218 19.8383 29.6421 19.8383 27.8329ZM46.2891 15.7054C45.2678 15.7054 44.8671 16.0199 44.6415 17L41.8039 28.7944C41.4494 30.2442 40.952 30.5097 40.1 30.5097C39.0574 30.5097 38.6403 30.2606 38.2247 28.7895L35.0106 16.9943C34.7444 16.0057 34.3523 15.7046 33.3309 15.7046H33.0569C32.6441 15.7046 32.2342 15.7431 32.0235 16.0178C31.8122 16.2932 31.884 16.7039 31.9922 17.1081L35.2398 29.0051C35.849 31.2826 36.5735 33.1665 39.2794 33.1665C39.7847 33.1665 40.2523 33.0967 40.6409 32.9658C39.8196 35.5465 38.9848 36.6852 36.523 36.9379C36.0234 36.9798 35.6988 37.0517 35.518 37.2937C35.3301 37.5457 35.3728 37.9058 35.4397 38.2275L35.5074 38.5328C35.654 39.2381 35.9045 39.6751 36.6966 39.6751C36.7799 39.6751 36.8696 39.6708 36.9657 39.663C40.6416 39.4224 42.6117 37.4425 43.7639 32.8306L47.6976 17.0996C47.7901 16.6953 47.847 16.2847 47.6314 16.0135C47.415 15.7424 47.0065 15.7046 46.5965 15.7046H46.2891V15.7054Z" fill="url(#paint0_linear_43_1359)"/>
<g style="mix-blend-mode:multiply">
<path fill-rule="evenodd" clip-rule="evenodd" d="M73.1968 15.2434L68.5123 15.242C68.3908 15.242 68.2704 15.218 68.1582 15.1715C68.0459 15.1251 67.9439 15.0569 67.858 14.971C67.7721 14.8851 67.704 14.7831 67.6575 14.6708C67.611 14.5586 67.587 14.4383 67.587 14.3168L67.5892 9.57391C67.5892 9.4524 67.6131 9.33209 67.6596 9.21984C67.7061 9.10758 67.7743 9.00559 67.8602 8.91967C67.9461 8.83376 68.0481 8.76561 68.1603 8.71911C68.2726 8.67261 68.3929 8.64868 68.5144 8.64868L73.1996 8.65082C73.4449 8.651 73.68 8.74857 73.8534 8.92206C74.0267 9.09555 74.1241 9.33078 74.1241 9.57604L74.1227 14.3189C74.1227 14.4404 74.0988 14.5607 74.0523 14.673C74.0058 14.7852 73.9376 14.8872 73.8517 14.9731C73.7658 15.059 73.6638 15.1272 73.5515 15.1737C73.4393 15.2202 73.319 15.2441 73.1975 15.2441" fill="#B5D000"/>
</g>
</g>
<defs>
<linearGradient id="paint0_linear_43_1359" x1="35.5707" y1="10.2238" x2="35.5707" y2="39.6751" gradientUnits="userSpaceOnUse">
<stop stop-color="#B6D000"/>
<stop offset="0.98069" stop-color="#2AA000"/>
</linearGradient>
<clipPath id="clip0_43_1359">
<rect width="79" height="39.8559" fill="white"/>
</clipPath>
</defs>
</svg>
